# xmcd CD database file
#
# Track frame offsets:
#	150
#	16030
#	36786
#	56567
#	72725
#	82753
#	100305
#	116185
#	136662
#	151009
#	165774
#	182490
#
# Disc length: 2685 seconds
#
# Revision: 0
# Processed by: cddbd v1.5.2PL0 Copyright (c) Steve Scherf et al.
# Submitted via: jetAudio 7
#
DISCID=870a7b0c
DTITLE=史擷咏  - 精靈的手指舞
DYEAR=1900
DGENRE=장르 없음
TTITLE0=希望(大愛電視大地之子片尾曲)
TTITLE1=吉諾佩蒂一號(電影危機四伏插曲)
TTITLE2=非洲之心(公視年度大戲45 ℃天空下配樂)
TTITLE3=咖啡小館(Cynthia的咖啡館筆記)
TTITLE4=樹樁之舞(挪威音樂之父Grieg輕快民謠)
TTITLE5=因爲(為)愛(大愛電視大地之子主題曲木笛縯奏版
TTITLE5=)
TTITLE6=小火車(臺灣高鐵動畫配樂)
TTITLE7=綠袖子(木笛縯奏者經典必學曲目)
TTITLE8=童心(擁抱大白熊電影主題曲)
TTITLE9=Sweet Dream(電影配樂般的浪漫風情)
TTITLE10=説給汪洋(公視大醫院小醫師片尾曲木笛縯奏版)
TTITLE11=F大調協奏曲(令人咋舌的高難度炫技曲，五顆星
TTITLE11=推薦！)
EXTD=
EXTT0=
EXTT1=
EXTT2=
EXTT3=
EXTT4=
EXTT5=
EXTT6=
EXTT7=
EXTT8=
EXTT9=
EXTT10=
EXTT11=
PLAYORDER=
